
# position 0 0 0
g road_0001-Ground 8
v -174.853 0.0006672149 169.7648
v -199.8279 -0.004791046 172.1236
v -199.8514 0.0006672149 170.0471
v -174.8296 -0.004791046 171.8413
v -199.8021 -0.01025785 174.3441
v -174.8085 -0.01025785 173.7802
v -199.7165 -0.01289043 176.8134
v -174.7539 -0.01289043 175.4458
v -199.5039 -0.0103461 179.5632
v -174.6535 -0.0103461 176.833
v -199.0912 0 182.3485
v -174.5158 0 177.7685
v -198.4763 0.03232358 185.1312
v -174.2242 0.03232358 179.0821
v -197.7086 0.08131534 187.8666
v -173.8979 0.08131534 180.2708
v -196.6922 0.1313169 190.7024
v -173.4881 0.1313169 181.4112
v -195.5212 0.1644731 193.3563
v -172.9524 0.1644731 182.6056
v -194.4124 0.1743774 195.5267
v -172.316 0.1743774 183.8333
v -192.985 0.1453145 198.0916
v -171.8286 0.1453145 184.7864
v -191.3284 0.07261687 200.4466
v -171.0143 0.07261687 185.887
v -190.0898 0.04287764 202.1754
v -169.7236 0.04287764 187.6791
v -188.8085 0.02463086 203.9922
v -168.3462 0.02463086 189.6302
v -187.6183 0.01363179 205.6981
v -167.0934 0.01363179 191.4251
v -186.4812 0.006375255 207.3394
v -165.9077 0.006375255 193.1364
v -184.9247 0 209.6001
v -164.332 0 195.4248
v -183.7672 -0.003042948 211.2822
v -163.1843 -0.003042948 197.0927
v -182.5365 -0.005470724 213.0643
v -161.9724 -0.005470724 198.8476
v -181.3698 -0.007260365 214.7499
v -160.8183 -0.007260365 200.5149
v -180.2165 -0.008666872 216.4138
v -159.6737 -0.008666872 202.1662
v -178.9952 -0.009849872 218.1738
v -158.4585 -0.009849872 203.9174
v -177.8198 -0.01074803 219.8663
v -157.2878 -0.01074803 205.6032
v -176.5954 -0.0114774 221.6283
v -156.0667 -0.0114774 207.3605
v -175.4432 -0.01200166 223.2859
v -154.9164 -0.01200166 209.0153
v -174.2568 -0.01240079 224.9922
v -153.7311 -0.01240079 210.72
v -173.0391 -0.01268162 226.7434
v -152.5141 -0.01268162 212.4701
v -171.7932 -0.01285099 228.5348
v -151.2682 -0.01285099 214.2616
v -170.6506 -0.01291377 230.1781
v -150.1248 -0.01291377 215.9059
v -169.4897 -0.0128968 231.8476
v -148.963 -0.0128968 217.5769
v -168.313 -0.01280505 233.5403
v -147.7849 -0.01280505 219.2717
v -167.1227 -0.01264352 235.253
v -146.5926 -0.01264352 220.9872
v -165.921 -0.01241717 236.9827
v -145.3886 -0.01241717 222.7201
v -164.7101 -0.012131 238.7262
v -144.175 -0.012131 224.4675
v -163.4924 -0.01178999 240.4803
v -142.9541 -0.01178999 226.2263
v -162.27 -0.01139913 242.2421
v -141.728 -0.01139913 227.9933
v -161.0452 -0.0109634 244.0084
v -140.4991 -0.0109634 229.7655
v -159.8202 -0.01048777 245.776
v -139.2696 -0.01048777 231.5398
v -158.5973 -0.009977239 247.542
v -138.0416 -0.009977239 233.3131
v -157.3788 -0.00943679 249.303
v -136.8174 -0.00943679 235.0823
v -156.1669 -0.008871404 251.0562
v -135.5993 -0.008871404 236.8444
v -154.9637 -0.008286067 252.7981
v -134.3895 -0.008286067 238.5961
v -153.7718 -0.007685761 254.5258
v -133.19 -0.007685761 240.3346
v -152.5933 -0.007075473 256.2361
v -132.0033 -0.007075473 242.0567
v -151.4305 -0.006460187 257.9258
v -130.8315 -0.006460187 243.7595
v -150.2858 -0.00584489 259.5913
v -129.6765 -0.00584489 245.4402
v -149.0372 -0.005167267 261.4112
v -128.4165 -0.005167267 247.2767
v -147.8171 -0.004502618 263.1929
v -127.1829 -0.004502618 249.0781
v -146.6283 -0.003857785 264.9327
v -125.9791 -0.003857785 250.8398
v -145.4739 -0.003239588 266.6263
v -124.8082 -0.003239588 252.5576
v -144.3578 -0.002654885 268.2679
v -123.6722 -0.002654885 254.2284
v -143.1765 -0.002058536 270.0112
v -122.4684 -0.002058536 256.0049
v -142.0502 -0.001520079 271.6797
v -121.314 -0.001520079 257.715
v -140.8878 -0.00100939 273.4097
v -120.1171 -0.00100939 259.4965
v -139.7141 -0.0005598102 275.1672
v -118.8983 -0.0005598102 261.3214
v -138.5666 -0.000213019 276.8991
v -117.6745 -0.000213019 263.1688
v -137.0083 0 279.2842
v -116.0386 0 265.6729
v -135.7424 0 281.2501
v -114.6989 0 267.7531
v -134.6269 0 282.9972
v -113.5157 0 269.6062
v -133.4863 0 284.8066
v -112.2732 0 271.5777
v -132.4162 0 286.5409
v -111.0342 0 273.5866
v -131.5348 0 288.0218
v -109.8273 0 275.6208
v -130.8232 0 289.3003
v -108.473 0 278.099
v -130.546 0 289.8538
v -107.0636 0 281.2762
v -130.3658 0 290.5917
v -106.1164 0 284.5115
v -129.9734 0 292.4123
v -105.6372 0 286.6897
v -129.5718 0 293.9735
v -105.2653 0 288.1259
v -129.2196 0 295.4869
v -104.6646 0 290.7911
v -129.0361 0 296.7164
v -104.2342 0 293.5756
v -128.8836 0 298.2397
v -103.9668 0 296.2023
v -128.7799 0 299.9153
v -103.8089 0 298.7117
v -128.7219 0 301.6558
v -103.7282 0 301.0912
v -128.6982 0 303.6336
v -103.6986 0 303.4922
v -128.7012 0 305.548
v -103.7013 0 305.6139
v -128.7092 0 307.6317
v -103.7094 0 307.7271
v -128.7168 0 309.6141
v -103.7169 0 309.7096

vn 2.968373E-05 0.9999966 0.002628252
vn 2.902744E-05 0.9999967 0.00257019
vn 2.968555E-05 0.9999966 0.002628272
vn 3.955634E-05 0.9999966 0.002628133
vn 3.686571E-05 0.9999979 0.00204576
vn 5.377163E-05 0.9999985 0.00176541
vn 9.313647E-06 0.9999999 0.0003945496
vn -4.696816E-05 0.9999999 -0.0004199016
vn -0.0002222342 0.9999976 -0.00220575
vn -0.000641584 0.9999899 -0.004464224
vn -0.001354174 0.9999678 -0.007905249
vn -0.003043425 0.9998937 -0.0142656
vn -0.003639465 0.9998696 -0.01573357
vn -0.006379973 0.999711 -0.02317557
vn -0.005920947 0.9997819 -0.02002419
vn -0.008922239 0.9996274 -0.02579715
vn -0.006474251 0.9998254 -0.01752871
vn -0.008334126 0.9997699 -0.01976638
vn -0.004641983 0.9999343 -0.01048335
vn -0.004514548 0.9999467 -0.009287995
vn 0.0006962218 0.9999991 0.001183413
vn 0.004537584 0.9999598 0.007713804
vn 0.009852655 0.9998193 0.01625881
vn 0.01816577 0.9994614 0.02733219
vn 0.01543514 0.9996228 0.02271891
vn 0.01348081 0.9997317 0.01883824
vn 0.006883987 0.9999298 0.00964589
vn 0.005616969 0.9999529 0.00792189
vn 0.004092022 0.9999748 0.005798784
vn 0.003467014 0.9999818 0.004952178
vn 0.002671939 0.9999892 0.003828936
vn 0.002320744 0.9999916 0.003344193
vn 0.001742176 0.9999953 0.002517212
vn 0.00149366 0.9999966 0.002165599
vn 0.001184677 0.9999978 0.001718995
vn 0.001032482 0.9999983 0.001499362
vn 0.0007750719 0.9999991 0.001124891
vn 0.0007094151 0.9999992 0.001028164
vn 0.000594834 0.9999994 0.0008613037
vn 0.0005502521 0.9999995 0.0007954769
vn 0.000465004 0.9999997 0.0006717981
vn 0.0004324824 0.9999997 0.0006241364
vn 0.0003686351 0.9999998 0.0005317563
vn 0.0003422577 0.9999998 0.0004933391
vn 0.0002937907 0.9999999 0.0004233533
vn 0.0002721059 0.9999999 0.0003918945
vn 0.0002301942 0.9999999 0.0003314528
vn 0.0002121799 0.9999999 0.0003053922
vn 0.000179494 1 0.0002583064
vn 0.0001643561 0.9999999 0.0002364588
vn 0.0001351866 1 0.0001944731
vn 0.0001223614 1 0.0001759958
vn 9.797369E-05 1 0.0001409106
vn 8.650414E-05 1 0.0001244028
vn 6.473985E-05 1 9.309984E-05
vn 5.445492E-05 1 7.830627E-05
vn 3.601233E-05 1 5.178591E-05
vn 2.721925E-05 1 3.914247E-05
vn 1.026905E-05 1 1.476768E-05
vn 2.712226E-06 0.9999999 3.900288E-06
vn -1.170419E-05 1 -1.683474E-05
vn -1.857314E-05 1 -2.671788E-05
vn -3.170589E-05 1 -4.561235E-05
vn -3.794625E-05 1 -5.459905E-05
vn -4.99188E-05 0.9999999 -7.183234E-05
vn -5.558307E-05 1 -7.999993E-05
vn -6.650166E-05 0.9999999 -9.57255E-05
vn -7.163222E-05 1 -0.0001031366
vn -8.158453E-05 1 -0.0001174819
vn -8.621843E-05 1 -0.0001241918
vn -9.528166E-05 1 -0.0001372684
vn -9.944855E-05 1 -0.0001433207
vn -0.0001076855 1 -0.0001552196
vn -0.0001114128 1 -0.0001606545
vn -0.0001188792 1 -0.0001714558
vn -0.0001221883 1 -0.0001763049
vn -0.0001289289 1 -0.0001860732
vn -0.0001318348 1 -0.0001903594
vn -0.0001378876 1 -0.0001991498
vn -0.0001404034 0.9999999 -0.0002028929
vn -0.0001457964 0.9999999 -0.0002107456
vn -0.0001479322 1 -0.0002139595
vn -0.0001526907 0.9999999 -0.0002209096
vn -0.0001544568 1 -0.0002236087
vn -0.0001585997 1 -0.0002296833
vn -0.0001599873 1 -0.0002318583
vn -0.0001635184 1 -0.0002370651
vn -0.000164527 0.9999999 -0.0002387158
vn -0.0001674605 0.9999999 -0.0002430718
vn -0.0001680878 1 -0.0002441934
vn -0.0001704272 0.9999999 -0.000247704
vn -0.0001706444 0.9999999 -0.000248262
vn -0.0001724039 0.9999999 -0.0002509575
vn -0.0001722356 0.9999999 -0.0002509888
vn -0.0001732672 0.9999999 -0.0002526321
vn -0.0001726273 1 -0.0002520158
vn -0.0001728858 0.9999999 -0.0002525649
vn -0.0001716689 1 -0.0002511486
vn -0.0001710641 1 -0.0002504529
vn -0.0001692518 0.9999999 -0.000248196
vn -0.000167727 0.9999999 -0.0002461663
vn -0.0001652214 1 -0.000242938
vn -0.0001623683 1 -0.0002389908
vn -0.0001590134 0.9999999 -0.0002345598
vn -0.0001549414 1 -0.0002288059
vn -0.0001505175 0.9999999 -0.000222848
vn -0.0001440961 0.9999999 -0.0002136544
vn -0.000138271 1 -0.0002056797
vn -0.0001292057 1 -0.0001925305
vn -0.0001213796 1 -0.0001816115
vn -0.0001082553 1 -0.000162339
vn -9.733746E-05 0.9999999 -0.0001468714
vn -6.9937E-05 1 -0.0001059266
vn -5.256164E-05 1 -8.02514E-05
vn -2.848659E-05 1 -4.361477E-05
vn -1.486225E-05 1 -2.289695E-05
vn 0 1 0
vn 0 0.9999999 0
vn 0 1 0
vn 0 1 0
vn 0 1 0
vn 0 1 0
vn 0 1 0
vn 0 1 0
vn 0 1 0
vn 0 1 0
vn 0 1 0
vn 0 0.9999999 0
vn 0 1 0
vn 0 1 0
vn 0 1 0
vn 0 0.9999999 0
vn 0 1 0
vn 0 1 0
vn 0 1 0
vn 0 1 0
vn 0 1 0
vn 0 1 0
vn 0 1 0
vn 0 1 0
vn 0 1 0
vn 0 1 0
vn 0 1 0
vn 0 1 0
vn 0 1 0
vn 0 1 0
vn 0 1 0
vn 0 1 0
vn 0 1 0
vn 0 1 0
vn 0 0.9999999 0
vn 0 1 0
vn 0 1 0
vn 0 1 0

vt 0 0 0.0
vt 1 0.4141208 0.0
vt 1 0 0.0
vt 0 0.4141208 0.0
vt 1 0.8288897 0.0
vt 0 0.8288897 0.0
vt 1 1.241415 0.0
vt 0 1.241415 0.0
vt 1 1.655087 0.0
vt 0 1.655087 0.0
vt 1 2.030134 0.0
vt 0 2.030134 0.0
vt 1 2.448501 0.0
vt 0 2.448501 0.0
vt 1 2.85482 0.0
vt 0 2.85482 0.0
vt 1 3.276135 0.0
vt 0 3.276135 0.0
vt 1 3.695941 0.0
vt 0 3.695941 0.0
vt 1 4.07684 0.0
vt 0 4.07684 0.0
vt 1 4.476256 0.0
vt 0 4.476256 0.0
vt 1 4.900082 0.0
vt 0 4.900082 0.0
vt 1 5.332387 0.0
vt 0 5.332387 0.0
vt 1 5.792211 0.0
vt 0 5.792211 0.0
vt 1 6.217865 0.0
vt 0 6.217865 0.0
vt 1 6.624545 0.0
vt 0 6.624545 0.0
vt 1 7.175259 0.0
vt 0 7.175259 0.0
vt 1 7.580735 0.0
vt 0 7.580735 0.0
vt 1 8.009329 0.0
vt 0 8.009329 0.0
vt 1 8.415924 0.0
vt 0 8.415924 0.0
vt 1 8.818122 0.0
vt 0 8.818122 0.0
vt 1 9.24426 0.0
vt 0 9.24426 0.0
vt 1 9.654371 0.0
vt 0 9.654371 0.0
vt 1 10.08169 0.0
vt 0 10.08169 0.0
vt 1 10.48391 0.0
vt 0 10.48391 0.0
vt 1 10.89816 0.0
vt 0 10.89816 0.0
vt 1 11.32338 0.0
vt 0 11.32338 0.0
vt 1 11.75854 0.0
vt 0 11.75854 0.0
vt 1 12.15779 0.0
vt 0 12.15779 0.0
vt 1 12.56348 0.0
vt 0 12.56348 0.0
vt 1 12.97484 0.0
vt 0 12.97484 0.0
vt 1 13.39111 0.0
vt 0 13.39111 0.0
vt 1 13.81151 0.0
vt 0 13.81151 0.0
vt 1 14.2353 0.0
vt 0 14.2353 0.0
vt 1 14.6617 0.0
vt 0 14.6617 0.0
vt 1 15.08996 0.0
vt 0 15.08996 0.0
vt 1 15.51931 0.0
vt 0 15.51931 0.0
vt 1 15.94899 0.0
vt 0 15.94899 0.0
vt 1 16.37824 0.0
vt 0 16.37824 0.0
vt 1 16.80629 0.0
vt 0 16.80629 0.0
vt 1 17.23238 0.0
vt 0 17.23238 0.0
vt 1 17.65575 0.0
vt 0 17.65575 0.0
vt 1 18.07563 0.0
vt 0 18.07563 0.0
vt 1 18.49127 0.0
vt 0 18.49127 0.0
vt 1 18.90189 0.0
vt 0 18.90189 0.0
vt 1 19.30674 0.0
vt 0 19.30674 0.0
vt 1 19.74887 0.0
vt 0 19.74887 0.0
vt 1 20.18189 0.0
vt 0 20.18189 0.0
vt 1 20.60474 0.0
vt 0 20.60474 0.0
vt 1 21.01639 0.0
vt 0 21.01639 0.0
vt 1 21.41578 0.0
vt 0 21.41578 0.0
vt 1 21.83972 0.0
vt 0 21.83972 0.0
vt 1 22.24617 0.0
vt 0 22.24617 0.0
vt 1 22.66799 0.0
vt 0 22.66799 0.0
vt 1 23.09753 0.0
vt 0 23.09753 0.0
vt 1 23.52563 0.0
vt 0 23.52563 0.0
vt 1 24.10795 0.0
vt 0 24.10795 0.0
vt 1 24.5878 0.0
vt 0 24.5878 0.0
vt 1 25.01371 0.0
vt 0 25.01371 0.0
vt 1 25.45934 0.0
vt 0 25.45934 0.0
vt 1 25.89788 0.0
vt 0 25.89788 0.0
vt 1 26.30555 0.0
vt 0 26.30555 0.0
vt 1 26.73303 0.0
vt 0 26.73303 0.0
vt 1 27.14127 0.0
vt 0 27.14127 0.0
vt 1 27.55308 0.0
vt 0 27.55308 0.0
vt 1 27.96116 0.0
vt 0 27.96116 0.0
vt 1 28.26982 0.0
vt 0 28.26982 0.0
vt 1 28.69716 0.0
vt 0 28.69716 0.0
vt 1 29.10205 0.0
vt 0 29.10205 0.0
vt 1 29.51796 0.0
vt 0 29.51796 0.0
vt 1 29.93607 0.0
vt 0 29.93607 0.0
vt 1 30.34709 0.0
vt 0 30.34709 0.0
vt 1 30.78374 0.0
vt 0 30.78374 0.0
vt 1 31.18618 0.0
vt 0 31.18618 0.0
vt 1 31.60466 0.0
vt 0 31.60466 0.0
vt 1 32 0.0
vt 0 32 0.0


usemtl material
usemap material
f 2/2/2 1/1/1 3/3/3
s 1
f 2/2/2 4/4/4 1/1/1
s 1
f 5/5/5 4/4/4 2/2/2
s 1
f 5/5/5 6/6/6 4/4/4
s 1
f 7/7/7 6/6/6 5/5/5
s 1
f 7/7/7 8/8/8 6/6/6
s 1
f 9/9/9 8/8/8 7/7/7
s 1
f 9/9/9 10/10/10 8/8/8
s 1
f 11/11/11 10/10/10 9/9/9
s 1
f 11/11/11 12/12/12 10/10/10
s 1
f 13/13/13 12/12/12 11/11/11
s 1
f 13/13/13 14/14/14 12/12/12
s 1
f 15/15/15 14/14/14 13/13/13
s 1
f 15/15/15 16/16/16 14/14/14
s 1
f 17/17/17 16/16/16 15/15/15
s 1
f 17/17/17 18/18/18 16/16/16
s 1
f 19/19/19 18/18/18 17/17/17
s 1
f 19/19/19 20/20/20 18/18/18
s 1
f 21/21/21 20/20/20 19/19/19
s 1
f 21/21/21 22/22/22 20/20/20
s 1
f 23/23/23 22/22/22 21/21/21
s 1
f 23/23/23 24/24/24 22/22/22
s 1
f 25/25/25 24/24/24 23/23/23
s 1
f 25/25/25 26/26/26 24/24/24
s 1
f 27/27/27 26/26/26 25/25/25
s 1
f 27/27/27 28/28/28 26/26/26
s 1
f 29/29/29 28/28/28 27/27/27
s 1
f 29/29/29 30/30/30 28/28/28
s 1
f 31/31/31 30/30/30 29/29/29
s 1
f 31/31/31 32/32/32 30/30/30
s 1
f 33/33/33 32/32/32 31/31/31
s 1
f 33/33/33 34/34/34 32/32/32
s 1
f 35/35/35 34/34/34 33/33/33
s 1
f 35/35/35 36/36/36 34/34/34
s 1
f 37/37/37 36/36/36 35/35/35
s 1
f 37/37/37 38/38/38 36/36/36
s 1
f 39/39/39 38/38/38 37/37/37
s 1
f 39/39/39 40/40/40 38/38/38
s 1
f 41/41/41 40/40/40 39/39/39
s 1
f 41/41/41 42/42/42 40/40/40
s 1
f 43/43/43 42/42/42 41/41/41
s 1
f 43/43/43 44/44/44 42/42/42
s 1
f 45/45/45 44/44/44 43/43/43
s 1
f 45/45/45 46/46/46 44/44/44
s 1
f 47/47/47 46/46/46 45/45/45
s 1
f 47/47/47 48/48/48 46/46/46
s 1
f 49/49/49 48/48/48 47/47/47
s 1
f 49/49/49 50/50/50 48/48/48
s 1
f 51/51/51 50/50/50 49/49/49
s 1
f 51/51/51 52/52/52 50/50/50
s 1
f 53/53/53 52/52/52 51/51/51
s 1
f 53/53/53 54/54/54 52/52/52
s 1
f 55/55/55 54/54/54 53/53/53
s 1
f 55/55/55 56/56/56 54/54/54
s 1
f 57/57/57 56/56/56 55/55/55
s 1
f 57/57/57 58/58/58 56/56/56
s 1
f 59/59/59 58/58/58 57/57/57
s 1
f 59/59/59 60/60/60 58/58/58
s 1
f 61/61/61 60/60/60 59/59/59
s 1
f 61/61/61 62/62/62 60/60/60
s 1
f 63/63/63 62/62/62 61/61/61
s 1
f 63/63/63 64/64/64 62/62/62
s 1
f 65/65/65 64/64/64 63/63/63
s 1
f 65/65/65 66/66/66 64/64/64
s 1
f 67/67/67 66/66/66 65/65/65
s 1
f 67/67/67 68/68/68 66/66/66
s 1
f 69/69/69 68/68/68 67/67/67
s 1
f 69/69/69 70/70/70 68/68/68
s 1
f 71/71/71 70/70/70 69/69/69
s 1
f 71/71/71 72/72/72 70/70/70
s 1
f 73/73/73 72/72/72 71/71/71
s 1
f 73/73/73 74/74/74 72/72/72
s 1
f 75/75/75 74/74/74 73/73/73
s 1
f 75/75/75 76/76/76 74/74/74
s 1
f 77/77/77 76/76/76 75/75/75
s 1
f 77/77/77 78/78/78 76/76/76
s 1
f 79/79/79 78/78/78 77/77/77
s 1
f 79/79/79 80/80/80 78/78/78
s 1
f 81/81/81 80/80/80 79/79/79
s 1
f 81/81/81 82/82/82 80/80/80
s 1
f 83/83/83 82/82/82 81/81/81
s 1
f 83/83/83 84/84/84 82/82/82
s 1
f 85/85/85 84/84/84 83/83/83
s 1
f 85/85/85 86/86/86 84/84/84
s 1
f 87/87/87 86/86/86 85/85/85
s 1
f 87/87/87 88/88/88 86/86/86
s 1
f 89/89/89 88/88/88 87/87/87
s 1
f 89/89/89 90/90/90 88/88/88
s 1
f 91/91/91 90/90/90 89/89/89
s 1
f 91/91/91 92/92/92 90/90/90
s 1
f 93/93/93 92/92/92 91/91/91
s 1
f 93/93/93 94/94/94 92/92/92
s 1
f 95/95/95 94/94/94 93/93/93
s 1
f 95/95/95 96/96/96 94/94/94
s 1
f 97/97/97 96/96/96 95/95/95
s 1
f 97/97/97 98/98/98 96/96/96
s 1
f 99/99/99 98/98/98 97/97/97
s 1
f 99/99/99 100/100/100 98/98/98
s 1
f 101/101/101 100/100/100 99/99/99
s 1
f 101/101/101 102/102/102 100/100/100
s 1
f 103/103/103 102/102/102 101/101/101
s 1
f 103/103/103 104/104/104 102/102/102
s 1
f 105/105/105 104/104/104 103/103/103
s 1
f 105/105/105 106/106/106 104/104/104
s 1
f 107/107/107 106/106/106 105/105/105
s 1
f 107/107/107 108/108/108 106/106/106
s 1
f 109/109/109 108/108/108 107/107/107
s 1
f 109/109/109 110/110/110 108/108/108
s 1
f 111/111/111 110/110/110 109/109/109
s 1
f 111/111/111 112/112/112 110/110/110
s 1
f 113/113/113 112/112/112 111/111/111
s 1
f 113/113/113 114/114/114 112/112/112
s 1
f 115/115/115 114/114/114 113/113/113
s 1
f 115/115/115 116/116/116 114/114/114
s 1
f 117/117/117 116/116/116 115/115/115
s 1
f 117/117/117 118/118/118 116/116/116
s 1
f 119/119/119 118/118/118 117/117/117
s 1
f 119/119/119 120/120/120 118/118/118
s 1
f 121/121/121 120/120/120 119/119/119
s 1
f 121/121/121 122/122/122 120/120/120
s 1
f 123/123/123 122/122/122 121/121/121
s 1
f 123/123/123 124/124/124 122/122/122
s 1
f 125/125/125 124/124/124 123/123/123
s 1
f 125/125/125 126/126/126 124/124/124
s 1
f 127/127/127 126/126/126 125/125/125
s 1
f 127/127/127 128/128/128 126/126/126
s 1
f 129/129/129 128/128/128 127/127/127
s 1
f 129/129/129 130/130/130 128/128/128
s 1
f 131/131/131 130/130/130 129/129/129
s 1
f 131/131/131 132/132/132 130/130/130
s 1
f 133/133/133 132/132/132 131/131/131
s 1
f 133/133/133 134/134/134 132/132/132
s 1
f 135/135/135 134/134/134 133/133/133
s 1
f 135/135/135 136/136/136 134/134/134
s 1
f 137/137/137 136/136/136 135/135/135
s 1
f 137/137/137 138/138/138 136/136/136
s 1
f 139/139/139 138/138/138 137/137/137
s 1
f 139/139/139 140/140/140 138/138/138
s 1
f 141/141/141 140/140/140 139/139/139
s 1
f 141/141/141 142/142/142 140/140/140
s 1
f 143/143/143 142/142/142 141/141/141
s 1
f 143/143/143 144/144/144 142/142/142
s 1
f 145/145/145 144/144/144 143/143/143
s 1
f 145/145/145 146/146/146 144/144/144
s 1
f 147/147/147 146/146/146 145/145/145
s 1
f 147/147/147 148/148/148 146/146/146
s 1
f 149/149/149 148/148/148 147/147/147
s 1
f 149/149/149 150/150/150 148/148/148
s 1
f 151/151/151 150/150/150 149/149/149
s 1
f 151/151/151 152/152/152 150/150/150
s 1
f 153/153/153 152/152/152 151/151/151
s 1
f 153/153/153 154/154/154 152/152/152
s 1
s 1

