
# position 0 0 0
g road_0001-Ground 8
v -138.6674 0 30.13351
v -163.6908 0 31.96353
v -163.6657 0 29.83874
v -138.6925 0 32.25834
v -163.7157 0 34.08657
v -138.7164 0 34.26986
v -163.7216 0 36.15804
v -138.7217 0 36.24696
v -163.73 0 38.13241
v -138.7309 0 38.34161
v -163.7549 0 40.19409
v -138.759 0 40.64602
v -163.8013 0 42.1122
v -138.8143 0 42.91794
v -163.8801 0 44.09053
v -138.9097 0 45.3059
v -163.9835 0 45.87057
v -139.0419 0 47.57898
v -164.1247 0 47.66961
v -139.2266 0 49.92515
v -164.308 0 49.46325
v -139.4746 0 52.34473
v -164.5375 0 51.23753
v -139.7966 0 54.82768
v -164.8165 0 52.9776
v -140.2045 0 57.36481
v -165.1474 0 54.66877
v -140.7109 0 59.94679
v -165.5465 0 56.35621
v -141.3143 0 62.50441
v -165.8617 0 57.4939
v -141.9005 0 64.6256
v -166.3588 0 59.07125
v -142.6376 0 66.96436
v -166.9579 0 60.78293
v -143.4608 0 69.32008
v -167.5839 0 62.43898
v -144.2877 0 71.51021
v -168.2891 0 64.19836
v -145.1633 0 73.69551
v -169.0643 0 66.04176
v -146.0822 0 75.88168
v -169.8144 0 67.75996
v -146.9583 0 77.88889
v -170.6111 0 69.53135
v -147.8588 0 79.89149
v -171.4451 0 71.34074
v -148.7819 0 81.89439
v -172.3109 0 73.18133
v -149.7225 0 83.89414
v -173.2028 0 75.04653
v -150.6754 0 85.88708
v -174.1149 0 76.92997
v -151.6353 0 87.86926
v -175.0421 0 78.82605
v -152.597 0 89.83604
v -175.9787 0 80.72929
v -153.5549 0 91.78265
v -176.9193 0 82.63435
v -154.5037 0 93.70414
v -177.8587 0 84.53626
v -155.4377 0 95.59519
v -178.7917 0 86.43046
v -156.3514 0 97.45017
v -179.7132 0 88.31271
v -157.2389 0 99.263
v -180.6196 0 90.18229
v -158.0929 0 101.0241
v -181.5888 0 92.21004
v -158.9912 0 102.9036
v -182.5271 0 94.21368
v -159.8341 0 104.7032
v -183.4131 0 96.15671
v -160.6285 0 106.4458
v -183.9127 0 97.2814
v -161.063 0 107.4249
v -184.7336 1.320836E-19 99.13102
v -161.9214 1.320836E-19 109.3586
v -185.5393 4.991322E-19 100.9101
v -162.7967 4.991322E-19 111.2915
v -186.3487 1.057343E-18 102.669
v -163.6641 1.057343E-18 113.1766
v -187.254 1.848503E-18 104.6117
v -164.6104 1.848503E-18 115.2072
v -188.1582 2.761501E-18 106.5358
v -165.5381 2.761501E-18 117.1815
v -189.0595 3.736251E-18 108.448
v -166.4413 3.736251E-18 119.0976
v -189.9549 4.712667E-18 110.352
v -167.3154 4.712667E-18 120.9563
v -190.841 5.630662E-18 112.2514
v -168.1563 5.630662E-18 122.7588
v -191.7164 6.430151E-18 114.1553
v -168.9574 6.430151E-18 124.5008
v -192.6555 7.101002E-18 116.244
v -169.7951 7.101002E-18 126.3633
v -193.5711 7.475777E-18 118.3466
v -170.5761 7.475777E-18 128.1562
v -194.4554 7.474499E-18 120.4647
v -171.2977 7.474499E-18 129.884
v -195.3019 7.017193E-18 122.6041
v -171.9562 7.017193E-18 131.5471
v -196.1089 6.023881E-18 124.7851
v -172.5433 6.023881E-18 133.1315
v -196.9185 4.234983E-18 127.1728
v -173.1158 4.234983E-18 134.8167
v -197.625 1.609184E-18 129.5017
v -173.6339 1.609184E-18 136.5322
v -198.0332 0 131.0037
v -173.7599 0 136.9877
v -198.6074 -4.207836E-18 133.4727
v -174.1317 -4.207836E-18 138.5658
v -199.0889 -9.671394E-18 136.0977
v -174.4093 -9.671394E-18 140.0876
v -199.4516 -1.618917E-17 138.6724
v -174.638 -1.618917E-17 141.7192
v -199.7163 -2.355967E-17 141.1866
v -174.8172 -2.355967E-17 143.4305
v -199.9001 -3.158138E-17 143.6283
v -174.9492 -3.158138E-17 145.1932
v -200.0185 -4.005282E-17 145.9833
v -175.0385 -4.005282E-17 146.9813
v -200.0855 -4.877247E-17 148.2457
v -175.0908 -4.877247E-17 148.7603
v -200.1144 -5.850705E-17 150.5927
v -175.1148 -5.850705E-17 150.7355
v -200.112 -6.802291E-17 152.7773
v -175.1124 -6.802291E-17 152.6428
v -200.0917 -7.790783E-17 154.92
v -175.093 -7.790783E-17 154.669
v -200.0708 -8.757576E-17 156.869
v -175.0709 -8.757576E-17 156.7872
v -200.0787 -9.731469E-17 158.8997
v -175.0789 -9.731469E-17 158.9933
v -200.0825 -1.020386E-16 159.9273
v -175.0827 -1.020386E-16 160.0209

vn 0 0.9999999 0
vn 0 1 0
vn 0 1 0
vn 0 1 0
vn 0 1 0
vn 0 1 0
vn 0 1 0
vn 0 1 0
vn 0 1 0
vn 0 1 0
vn 0 1 0
vn 0 0.9999999 0
vn 0 1 0
vn 0 1 0
vn 0 1 0
vn 0 1 0
vn 0 1 0
vn 0 1 0
vn 0 1 0
vn 0 1 0
vn 0 1 0
vn 0 1 0
vn 0 1 0
vn 0 1 0
vn 0 1 0
vn 0 1 0
vn 0 1 0
vn 0 1 0
vn 0 1 0
vn 0 1 0
vn 0 1 0
vn 0 1 0
vn 0 1 0
vn 0 1 0
vn 0 1 0
vn 0 1 0
vn 0 1 0
vn 0 1 0
vn 0 1 0
vn 0 1 0
vn 0 1 0
vn 0 0.9999999 0
vn 0 1 0
vn 0 1 0
vn 0 1 0
vn 0 1 0
vn 0 0.9999999 0
vn 0 1 0
vn 0 1 0
vn 0 1 0
vn 0 1 0
vn 0 1 0
vn 0 1 0
vn 0 1 0
vn 0 1 0
vn 0 1 0
vn 0 1 0
vn 0 0.9999999 0
vn 0 1 0
vn 0 1 0
vn 0 1 0
vn 0 1 0
vn 0 1 0
vn 0 1 0
vn 0 1 0
vn 0 1 0
vn 0 1 0
vn 0 1 0
vn 0 1 0
vn 0 1 0
vn 0 1 0
vn 0 1 0
vn 0 1 0
vn 0 1 0
vn 1.238976E-20 0.9999999 -2.790967E-20
vn 2.065578E-20 1 -4.629992E-20
vn 4.231393E-20 1 -9.457433E-20
vn 5.760743E-20 1 -1.275119E-19
vn 8.89008E-20 1 -1.957482E-19
vn 1.009018E-19 1 -2.198286E-19
vn 1.298129E-19 1 -2.814493E-19
vn 1.397279E-19 1 -3.005257E-19
vn 1.620366E-19 1 -3.474023E-19
vn 1.696849E-19 1 -3.619053E-19
vn 1.854447E-19 1 -3.947765E-19
vn 1.900767E-19 1 -4.038167E-19
vn 1.966849E-19 1 -4.177953E-19
vn 1.984186E-19 1 -4.221456E-19
vn 1.949956E-19 1 -4.15567E-19
vn 1.937453E-19 1 -4.151412E-19
vn 1.798017E-19 1 -3.866669E-19
vn 1.753964E-19 1 -3.809257E-19
vn 1.498455E-19 1 -3.274595E-19
vn 1.408054E-19 1 -3.123286E-19
vn 1.057799E-19 1 -2.364861E-19
vn 9.065357E-20 1 -2.067829E-19
vn 4.557713E-20 1 -1.048674E-19
vn 2.385612E-20 1 -5.59127E-20
vn -2.678988E-20 1 6.585453E-20
vn -5.642228E-20 1 1.428855E-19
vn -1.077553E-19 0.9999999 2.772125E-19
vn -1.465566E-19 1 3.947543E-19
vn -1.96482E-19 1 5.431804E-19
vn -2.463798E-19 1 7.221692E-19
vn -2.891402E-19 1 8.746059E-19
vn -3.477547E-19 1 1.1196E-18
vn -3.448605E-19 1 1.135369E-18
vn -4.125422E-19 1 1.472693E-18
vn -4.042971E-19 0.9999999 1.576104E-18
vn -4.861058E-19 1 2.110606E-18
vn -4.363618E-19 1 1.986402E-18
vn -4.870717E-19 1 2.546901E-18
vn -4.439515E-19 1 2.520697E-18
vn -4.671569E-19 1 3.158171E-18
vn -4.033865E-19 1 2.984526E-18
vn -3.993093E-19 0.9999999 3.583326E-18
vn -3.404441E-19 1 3.381698E-18
vn -3.17312E-19 1 3.931031E-18
vn -2.66584E-19 1 3.719417E-18
vn -2.317007E-19 0.9999999 4.21358E-18
vn -1.897584E-19 1 3.997991E-18
vn -1.484223E-19 1 4.439307E-18
vn -1.139164E-19 1 4.25081E-18
vn -7.13586E-20 1 4.618801E-18
vn -4.769195E-20 1 4.454016E-18
vn -9.685001E-21 1 4.741235E-18
vn 8.028409E-21 1 4.638065E-18
vn 3.351975E-20 0.9999999 4.819533E-18
vn 4.078681E-20 1 4.811333E-18
vn 3.741469E-20 1 4.795115E-18
vn 2.633929E-20 1 4.767822E-18
vn 4.260395E-21 1 4.586203E-18
vn -4.228957E-21 1 4.597222E-18
vn -1.685584E-20 0.9999999 4.502548E-18
vn -1.72087E-20 1 4.597183E-18
vn -1.720615E-20 1 4.597251E-18

vt 0 0 0.0
vt 1 0.4183266 0.0
vt 1 0 0.0
vt 0 0.4183266 0.0
vt 1 0.8253275 0.0
vt 0 0.8253275 0.0
vt 1 1.223838 0.0
vt 0 1.223838 0.0
vt 1 1.624363 0.0
vt 0 1.624363 0.0
vt 1 2.054157 0.0
vt 0 2.054157 0.0
vt 1 2.466711 0.0
vt 0 2.466711 0.0
vt 1 2.896835 0.0
vt 0 2.896835 0.0
vt 1 3.296465 0.0
vt 0 3.296465 0.0
vt 1 3.705745 0.0
vt 0 3.705745 0.0
vt 1 4.122627 0.0
vt 0 4.122627 0.0
vt 1 4.545177 0.0
vt 0 4.545177 0.0
vt 1 4.971583 0.0
vt 0 4.971583 0.0
vt 1 5.400195 0.0
vt 0 5.400195 0.0
vt 1 5.82954 0.0
vt 0 5.82954 0.0
vt 1 6.162361 0.0
vt 0 6.162361 0.0
vt 1 6.566522 0.0
vt 0 6.566522 0.0
vt 1 6.990654 0.0
vt 0 6.990654 0.0
vt 1 7.395353 0.0
vt 0 7.395353 0.0
vt 1 7.813651 0.0
vt 0 7.813651 0.0
vt 1 8.243916 0.0
vt 0 8.243916 0.0
vt 1 8.644031 0.0
vt 0 8.644031 0.0
vt 1 9.051346 0.0
vt 0 9.051346 0.0
vt 1 9.46454 0.0
vt 0 9.46454 0.0
vt 1 9.882283 0.0
vt 0 9.882283 0.0
vt 1 10.30322 0.0
vt 0 10.30322 0.0
vt 1 10.726 0.0
vt 0 10.726 0.0
vt 1 11.14925 0.0
vt 0 11.14925 0.0
vt 1 11.57159 0.0
vt 0 11.57159 0.0
vt 1 11.99166 0.0
vt 0 11.99166 0.0
vt 1 12.40807 0.0
vt 0 12.40807 0.0
vt 1 12.81944 0.0
vt 0 12.81944 0.0
vt 1 13.2244 0.0
vt 0 13.2244 0.0
vt 1 13.62157 0.0
vt 0 13.62157 0.0
vt 1 14.04784 0.0
vt 0 14.04784 0.0
vt 1 14.46122 0.0
vt 0 14.46122 0.0
vt 1 14.85993 0.0
vt 0 14.85993 0.0
vt 1 15.08651 0.0
vt 0 15.08651 0.0
vt 1 15.49395 0.0
vt 0 15.49395 0.0
vt 1 15.89504 0.0
vt 0 15.89504 0.0
vt 1 16.28988 0.0
vt 0 16.28988 0.0
vt 1 16.72136 0.0
vt 0 16.72136 0.0
vt 1 17.14535 0.0
vt 0 17.14535 0.0
vt 1 17.56193 0.0
vt 0 17.56193 0.0
vt 1 17.97122 0.0
vt 0 17.97122 0.0
vt 1 18.3733 0.0
vt 0 18.3733 0.0
vt 1 18.76829 0.0
vt 0 18.76829 0.0
vt 1 19.19474 0.0
vt 0 19.19474 0.0
vt 1 19.61296 0.0
vt 0 19.61296 0.0
vt 1 20.0232 0.0
vt 0 20.0232 0.0
vt 1 20.42574 0.0
vt 0 20.42574 0.0
vt 1 20.82096 0.0
vt 0 20.82096 0.0
vt 1 21.24432 0.0
vt 0 21.24432 0.0
vt 1 21.66027 0.0
vt 0 21.66027 0.0
vt 1 21.85999 0.0
vt 0 21.85999 0.0
vt 1 22.26909 0.0
vt 0 22.26909 0.0
vt 1 22.68406 0.0
vt 0 22.68406 0.0
vt 1 23.10216 0.0
vt 0 23.10216 0.0
vt 1 23.52037 0.0
vt 0 23.52037 0.0
vt 1 23.93539 0.0
vt 0 23.93539 0.0
vt 1 24.34371 0.0
vt 0 24.34371 0.0
vt 1 24.74168 0.0
vt 0 24.74168 0.0
vt 1 25.16717 0.0
vt 0 25.16717 0.0
vt 1 25.56993 0.0
vt 0 25.56993 0.0
vt 1 25.98031 0.0
vt 0 25.98031 0.0
vt 1 26.38067 0.0
vt 0 26.38067 0.0
vt 1 26.79771 0.0
vt 0 26.79771 0.0
vt 1 27 0.0
vt 0 27 0.0


usemtl material
usemap material
f 2/2/2 1/1/1 3/3/3
s 1
f 2/2/2 4/4/4 1/1/1
s 1
f 5/5/5 4/4/4 2/2/2
s 1
f 5/5/5 6/6/6 4/4/4
s 1
f 7/7/7 6/6/6 5/5/5
s 1
f 7/7/7 8/8/8 6/6/6
s 1
f 9/9/9 8/8/8 7/7/7
s 1
f 9/9/9 10/10/10 8/8/8
s 1
f 11/11/11 10/10/10 9/9/9
s 1
f 11/11/11 12/12/12 10/10/10
s 1
f 13/13/13 12/12/12 11/11/11
s 1
f 13/13/13 14/14/14 12/12/12
s 1
f 15/15/15 14/14/14 13/13/13
s 1
f 15/15/15 16/16/16 14/14/14
s 1
f 17/17/17 16/16/16 15/15/15
s 1
f 17/17/17 18/18/18 16/16/16
s 1
f 19/19/19 18/18/18 17/17/17
s 1
f 19/19/19 20/20/20 18/18/18
s 1
f 21/21/21 20/20/20 19/19/19
s 1
f 21/21/21 22/22/22 20/20/20
s 1
f 23/23/23 22/22/22 21/21/21
s 1
f 23/23/23 24/24/24 22/22/22
s 1
f 25/25/25 24/24/24 23/23/23
s 1
f 25/25/25 26/26/26 24/24/24
s 1
f 27/27/27 26/26/26 25/25/25
s 1
f 27/27/27 28/28/28 26/26/26
s 1
f 29/29/29 28/28/28 27/27/27
s 1
f 29/29/29 30/30/30 28/28/28
s 1
f 31/31/31 30/30/30 29/29/29
s 1
f 31/31/31 32/32/32 30/30/30
s 1
f 33/33/33 32/32/32 31/31/31
s 1
f 33/33/33 34/34/34 32/32/32
s 1
f 35/35/35 34/34/34 33/33/33
s 1
f 35/35/35 36/36/36 34/34/34
s 1
f 37/37/37 36/36/36 35/35/35
s 1
f 37/37/37 38/38/38 36/36/36
s 1
f 39/39/39 38/38/38 37/37/37
s 1
f 39/39/39 40/40/40 38/38/38
s 1
f 41/41/41 40/40/40 39/39/39
s 1
f 41/41/41 42/42/42 40/40/40
s 1
f 43/43/43 42/42/42 41/41/41
s 1
f 43/43/43 44/44/44 42/42/42
s 1
f 45/45/45 44/44/44 43/43/43
s 1
f 45/45/45 46/46/46 44/44/44
s 1
f 47/47/47 46/46/46 45/45/45
s 1
f 47/47/47 48/48/48 46/46/46
s 1
f 49/49/49 48/48/48 47/47/47
s 1
f 49/49/49 50/50/50 48/48/48
s 1
f 51/51/51 50/50/50 49/49/49
s 1
f 51/51/51 52/52/52 50/50/50
s 1
f 53/53/53 52/52/52 51/51/51
s 1
f 53/53/53 54/54/54 52/52/52
s 1
f 55/55/55 54/54/54 53/53/53
s 1
f 55/55/55 56/56/56 54/54/54
s 1
f 57/57/57 56/56/56 55/55/55
s 1
f 57/57/57 58/58/58 56/56/56
s 1
f 59/59/59 58/58/58 57/57/57
s 1
f 59/59/59 60/60/60 58/58/58
s 1
f 61/61/61 60/60/60 59/59/59
s 1
f 61/61/61 62/62/62 60/60/60
s 1
f 63/63/63 62/62/62 61/61/61
s 1
f 63/63/63 64/64/64 62/62/62
s 1
f 65/65/65 64/64/64 63/63/63
s 1
f 65/65/65 66/66/66 64/64/64
s 1
f 67/67/67 66/66/66 65/65/65
s 1
f 67/67/67 68/68/68 66/66/66
s 1
f 69/69/69 68/68/68 67/67/67
s 1
f 69/69/69 70/70/70 68/68/68
s 1
f 71/71/71 70/70/70 69/69/69
s 1
f 71/71/71 72/72/72 70/70/70
s 1
f 73/73/73 72/72/72 71/71/71
s 1
f 73/73/73 74/74/74 72/72/72
s 1
f 75/75/75 74/74/74 73/73/73
s 1
f 75/75/75 76/76/76 74/74/74
s 1
f 77/77/77 76/76/76 75/75/75
s 1
f 77/77/77 78/78/78 76/76/76
s 1
f 79/79/79 78/78/78 77/77/77
s 1
f 79/79/79 80/80/80 78/78/78
s 1
f 81/81/81 80/80/80 79/79/79
s 1
f 81/81/81 82/82/82 80/80/80
s 1
f 83/83/83 82/82/82 81/81/81
s 1
f 83/83/83 84/84/84 82/82/82
s 1
f 85/85/85 84/84/84 83/83/83
s 1
f 85/85/85 86/86/86 84/84/84
s 1
f 87/87/87 86/86/86 85/85/85
s 1
f 87/87/87 88/88/88 86/86/86
s 1
f 89/89/89 88/88/88 87/87/87
s 1
f 89/89/89 90/90/90 88/88/88
s 1
f 91/91/91 90/90/90 89/89/89
s 1
f 91/91/91 92/92/92 90/90/90
s 1
f 93/93/93 92/92/92 91/91/91
s 1
f 93/93/93 94/94/94 92/92/92
s 1
f 95/95/95 94/94/94 93/93/93
s 1
f 95/95/95 96/96/96 94/94/94
s 1
f 97/97/97 96/96/96 95/95/95
s 1
f 97/97/97 98/98/98 96/96/96
s 1
f 99/99/99 98/98/98 97/97/97
s 1
f 99/99/99 100/100/100 98/98/98
s 1
f 101/101/101 100/100/100 99/99/99
s 1
f 101/101/101 102/102/102 100/100/100
s 1
f 103/103/103 102/102/102 101/101/101
s 1
f 103/103/103 104/104/104 102/102/102
s 1
f 105/105/105 104/104/104 103/103/103
s 1
f 105/105/105 106/106/106 104/104/104
s 1
f 107/107/107 106/106/106 105/105/105
s 1
f 107/107/107 108/108/108 106/106/106
s 1
f 109/109/109 108/108/108 107/107/107
s 1
f 109/109/109 110/110/110 108/108/108
s 1
f 111/111/111 110/110/110 109/109/109
s 1
f 111/111/111 112/112/112 110/110/110
s 1
f 113/113/113 112/112/112 111/111/111
s 1
f 113/113/113 114/114/114 112/112/112
s 1
f 115/115/115 114/114/114 113/113/113
s 1
f 115/115/115 116/116/116 114/114/114
s 1
f 117/117/117 116/116/116 115/115/115
s 1
f 117/117/117 118/118/118 116/116/116
s 1
f 119/119/119 118/118/118 117/117/117
s 1
f 119/119/119 120/120/120 118/118/118
s 1
f 121/121/121 120/120/120 119/119/119
s 1
f 121/121/121 122/122/122 120/120/120
s 1
f 123/123/123 122/122/122 121/121/121
s 1
f 123/123/123 124/124/124 122/122/122
s 1
f 125/125/125 124/124/124 123/123/123
s 1
f 125/125/125 126/126/126 124/124/124
s 1
f 127/127/127 126/126/126 125/125/125
s 1
f 127/127/127 128/128/128 126/126/126
s 1
f 129/129/129 128/128/128 127/127/127
s 1
f 129/129/129 130/130/130 128/128/128
s 1
f 131/131/131 130/130/130 129/129/129
s 1
f 131/131/131 132/132/132 130/130/130
s 1
f 133/133/133 132/132/132 131/131/131
s 1
f 133/133/133 134/134/134 132/132/132
s 1
f 135/135/135 134/134/134 133/133/133
s 1
f 135/135/135 136/136/136 134/134/134
s 1
s 1

