
# position 0 0 0
g road_0001-Stage1_WideStraightStreet
v 25.21187 0 40.05572
v -24.79334 0 41.95581
v -24.78796 0 39.92324
v 25.20648 0 42.08829
v -24.79793 0 44.38427
v 25.19981 0 43.90862
v -24.71319 0 47.57809
v 25.20481 0 44.71564
v -24.34154 0 51.56113
v 25.2111 0 44.88757
v -23.58755 0 55.78556
v 25.20366 0 44.85772
v -22.47616 0 59.90265
v 25.20893 0 44.86497
v -21.10636 0 63.70433
v 25.26891 0 45.01383
v -19.54841 0 67.19405
v 25.35687 0 45.20506
v -17.77612 0 70.53963
v 25.64802 0 45.75366
v -15.94592 0 73.54258
v 26.1754 0 46.60199
v -14.29154 0 76.01772
v 26.85393 0 47.60909
v -12.60428 0 78.39278
v 27.73572 0 48.85154
v -10.86172 0 80.69577
v 28.50733 0 49.87243
v -8.977566 0 83.02405
v 29.35714 0 50.92342
v -7.041958 0 85.25254
v 30.09808 0 51.77691
v -4.96657 0 87.47323
v 30.9071 0 52.64393
v -2.781749 0 89.64156
v 31.80574 0 53.53471
v -0.6377335 0 91.62221
v 32.68844 0 54.34801
v 1.482559 0 93.46188
v 33.79398 0 55.30468
v 3.42115 0 95.06577
v 35.03767 0 56.33083
v 5.117188 0 96.43321
v 36.49234 0 57.5025
v 6.558993 0 97.59459
v 38.18165 0 58.86467
v 7.762083 0 98.58778
v 40.1021 0 60.45481
v 8.768002 0 99.45933
v 42.22411 0 62.3017
v 9.669249 0 100.2971
v 44.46715 0 64.39293
v 10.41751 0 101.0527
v 46.6462 0 66.59285
v 11.0647 0 101.762
v 48.71165 0 68.85745
v 11.80451 0 102.6437
v 50.71996 0 71.24964
v 12.47171 0 103.5064
v 52.58794 0 73.66206
v 13.2571 0 104.6035
v 54.37851 0 76.16011
v 14.00109 0 105.7221
v 55.99225 0 78.57914
v 14.69288 0 106.8291
v 57.43087 0 80.8779
v 15.45745 0 108.1245
v 58.83224 0 83.25227
v 16.28973 0 109.6173
v 60.20422 0 85.71088
v 16.98639 0 110.9303
v 61.46991 0 88.10017
v 18.05986 0 113.0628
v 63.14025 0 91.4351
v 18.32311 0 113.6444
v 64.55753 0 94.60815
v 18.54565 0 114.2402
v 65.79607 0 97.88789
v 18.7825 0 114.9954
v 66.81544 0 101.1088
v 19.01887 0 115.9004
v 67.64505 0 104.2601
v 19.24302 0 116.9422
v 68.31121 0 107.3343
v 19.44625 0 118.1059
v 68.83725 0 110.3259
v 19.62269 0 119.3757
v 69.24359 0 113.2303
v 19.76896 0 120.7356
v 69.54827 0 116.043
v 19.88367 0 122.1699
v 69.76723 0 118.7594
v 19.96719 0 123.664
v 69.9147 0 121.3736
v 20.02059 0 125.1815
v 70.00421 0 123.9016
v 20.04999 0 126.9587
v 70.04807 0 126.521
v 20.05069 0 128.7369
v 70.04995 0 129.0087
v 20.02952 0 130.5232
v 70.02303 0 131.3296
v 19.98869 0 132.521
v 69.97633 0 133.6329
v 19.94007 0 134.5237
v 69.92699 0 135.6679
v 19.89239 0 136.7675
v 69.88725 0 137.485
v 19.87479 0 139.0507
v 69.87341 0 139.423
v 19.8542 0 141.8167
v 69.85281 0 142.1889

vn 0 0.9999999 0
vn 0 1 0
vn 0 0.9999999 0
vn 0 1 0
vn 0 1 0
vn 0 1 0
vn 0 0.9999999 0
vn 0 1 0
vn 0 1 0
vn 0 0.9999999 0
vn 0 1 0
vn 0 1 0
vn 0 1 0
vn 0 1 0
vn 0 1 0
vn 0 0.9999999 0
vn 0 0.9999999 0
vn 0 1 0
vn 0 1 0
vn 0 1 0
vn 0 1 0
vn 0 1 0
vn 0 1 0
vn 0 1 0
vn 0 1 0
vn 0 1 0
vn 0 1 0
vn 0 1 0
vn 0 1 0
vn 0 1 0
vn 0 1 0
vn 0 1 0
vn 0 1 0
vn 0 1 0
vn 0 1 0
vn 0 1 0
vn 0 1 0
vn 0 1 0
vn 0 1 0
vn 0 1 0
vn 0 1 0
vn 0 1 0
vn 0 1 0
vn 0 1 0
vn 0 1 0
vn 0 1 0
vn 0 1 0
vn 0 1 0
vn 0 1 0
vn 0 0.9999999 0
vn 0 1 0
vn 0 1 0
vn 0 1 0
vn 0 1 0
vn 0 1 0
vn 0 1 0
vn 0 1 0
vn 0 1 0
vn 0 1 0
vn 0 1 0
vn 0 1 0
vn 0 0.9999999 0
vn 0 1 0
vn 0 1 0
vn 0 1 0
vn 0 1 0
vn 0 1 0
vn 0 1 0
vn 0 1 0
vn 0 1 0
vn 0 1 0
vn 0 1 0
vn 0 1 0
vn 0 1 0
vn 0 1 0
vn 0 1 0
vn 0 1 0
vn 0 0.9999999 0
vn 0 1 0
vn 0 1 0
vn 0 1 0
vn 0 1 0
vn 0 1 0
vn 0 1 0
vn 0 1 0
vn 0 1 0
vn 0 1 0
vn 0 1 0
vn 0 0.9999999 0
vn 0 1 0
vn 0 1 0
vn 0 1 0
vn 0 1 0
vn 0 1 0
vn 0 1 0
vn 0 1 0
vn 0 1 0
vn 0 1 0
vn 0 1 0
vn 0 0.9999999 0
vn 0 1 0
vn 0 1 0
vn 0 1 0
vn 0 1 0
vn 0 1 0
vn 0 1 0
vn 0 1 0
vn 0 1 0
vn 0 1 0
vn 0 1 0
vn 0 1 0
vn 0 1 0

vt 0 0 0.0
vt 1 0.3993095 0.0
vt 1 0 0.0
vt 0 0.3993095 0.0
vt 1 0.8166581 0.0
vt 0 0.8166581 0.0
vt 1 1.209749 0.0
vt 0 1.209749 0.0
vt 1 1.619565 0.0
vt 0 1.619565 0.0
vt 1 2.038063 0.0
vt 0 2.038063 0.0
vt 1 2.457773 0.0
vt 0 2.457773 0.0
vt 1 2.870457 0.0
vt 0 2.870457 0.0
vt 1 3.266526 0.0
vt 0 3.266526 0.0
vt 1 3.699423 0.0
vt 0 3.699423 0.0
vt 1 4.142978 0.0
vt 0 4.142978 0.0
vt 1 4.554695 0.0
vt 0 4.554695 0.0
vt 1 4.990523 0.0
vt 0 4.990523 0.0
vt 1 5.399899 0.0
vt 0 5.399899 0.0
vt 1 5.826867 0.0
vt 0 5.826867 0.0
vt 1 6.227829 0.0
vt 0 6.227829 0.0
vt 1 6.642876 0.0
vt 0 6.642876 0.0
vt 1 7.069526 0.0
vt 0 7.069526 0.0
vt 1 7.474136 0.0
vt 0 7.474136 0.0
vt 1 7.893482 0.0
vt 0 7.893482 0.0
vt 1 8.299007 0.0
vt 0 8.299007 0.0
vt 1 8.696485 0.0
vt 0 8.696485 0.0
vt 1 9.091502 0.0
vt 0 9.091502 0.0
vt 1 9.489656 0.0
vt 0 9.489656 0.0
vt 1 9.896724 0.0
vt 0 9.896724 0.0
vt 1 10.31882 0.0
vt 0 10.31882 0.0
vt 1 10.72744 0.0
vt 0 10.72744 0.0
vt 1 11.12282 0.0
vt 0 11.12282 0.0
vt 1 11.54269 0.0
vt 0 11.54269 0.0
vt 1 11.94951 0.0
vt 0 11.94951 0.0
vt 1 12.38395 0.0
vt 0 12.38395 0.0
vt 1 12.80154 0.0
vt 0 12.80154 0.0
vt 1 13.19614 0.0
vt 0 13.19614 0.0
vt 1 13.61471 0.0
vt 0 13.61471 0.0
vt 1 14.05916 0.0
vt 0 14.05916 0.0
vt 1 14.47075 0.0
vt 0 14.47075 0.0
vt 1 15.07164 0.0
vt 0 15.07164 0.0
vt 1 15.4757 0.0
vt 0 15.4757 0.0
vt 1 15.88254 0.0
vt 0 15.88254 0.0
vt 1 16.29214 0.0
vt 0 16.29214 0.0
vt 1 16.7041 0.0
vt 0 16.7041 0.0
vt 1 17.11776 0.0
vt 0 17.11776 0.0
vt 1 17.53216 0.0
vt 0 17.53216 0.0
vt 1 17.94615 0.0
vt 0 17.94615 0.0
vt 1 18.35841 0.0
vt 0 18.35841 0.0
vt 1 18.76744 0.0
vt 0 18.76744 0.0
vt 1 19.17162 0.0
vt 0 19.17162 0.0
vt 1 19.56925 0.0
vt 0 19.56925 0.0
vt 1 20.00117 0.0
vt 0 20.00117 0.0
vt 1 20.4202 0.0
vt 0 20.4202 0.0
vt 1 20.82366 0.0
vt 0 20.82366 0.0
vt 1 21.24623 0.0
vt 0 21.24623 0.0
vt 1 21.64297 0.0
vt 0 21.64297 0.0
vt 1 22.04196 0.0
vt 0 22.04196 0.0
vt 1 22.4566 0.0
vt 0 22.4566 0.0
vt 1 23 0.0
vt 0 23 0.0


usemtl material
usemap material
f 2/2/2 1/1/1 3/3/3
s 1
f 2/2/2 4/4/4 1/1/1
s 1
f 5/5/5 4/4/4 2/2/2
s 1
f 5/5/5 6/6/6 4/4/4
s 1
f 7/7/7 6/6/6 5/5/5
s 1
f 7/7/7 8/8/8 6/6/6
s 1
f 9/9/9 8/8/8 7/7/7
s 1
f 9/9/9 10/10/10 8/8/8
s 1
f 11/11/11 10/10/10 9/9/9
s 1
f 11/11/11 12/12/12 10/10/10
s 1
f 13/13/13 12/12/12 11/11/11
s 1
f 13/13/13 14/14/14 12/12/12
s 1
f 15/15/15 14/14/14 13/13/13
s 1
f 15/15/15 16/16/16 14/14/14
s 1
f 17/17/17 16/16/16 15/15/15
s 1
f 17/17/17 18/18/18 16/16/16
s 1
f 19/19/19 18/18/18 17/17/17
s 1
f 19/19/19 20/20/20 18/18/18
s 1
f 21/21/21 20/20/20 19/19/19
s 1
f 21/21/21 22/22/22 20/20/20
s 1
f 23/23/23 22/22/22 21/21/21
s 1
f 23/23/23 24/24/24 22/22/22
s 1
f 25/25/25 24/24/24 23/23/23
s 1
f 25/25/25 26/26/26 24/24/24
s 1
f 27/27/27 26/26/26 25/25/25
s 1
f 27/27/27 28/28/28 26/26/26
s 1
f 29/29/29 28/28/28 27/27/27
s 1
f 29/29/29 30/30/30 28/28/28
s 1
f 31/31/31 30/30/30 29/29/29
s 1
f 31/31/31 32/32/32 30/30/30
s 1
f 33/33/33 32/32/32 31/31/31
s 1
f 33/33/33 34/34/34 32/32/32
s 1
f 35/35/35 34/34/34 33/33/33
s 1
f 35/35/35 36/36/36 34/34/34
s 1
f 37/37/37 36/36/36 35/35/35
s 1
f 37/37/37 38/38/38 36/36/36
s 1
f 39/39/39 38/38/38 37/37/37
s 1
f 39/39/39 40/40/40 38/38/38
s 1
f 41/41/41 40/40/40 39/39/39
s 1
f 41/41/41 42/42/42 40/40/40
s 1
f 43/43/43 42/42/42 41/41/41
s 1
f 43/43/43 44/44/44 42/42/42
s 1
f 45/45/45 44/44/44 43/43/43
s 1
f 45/45/45 46/46/46 44/44/44
s 1
f 47/47/47 46/46/46 45/45/45
s 1
f 47/47/47 48/48/48 46/46/46
s 1
f 49/49/49 48/48/48 47/47/47
s 1
f 49/49/49 50/50/50 48/48/48
s 1
f 51/51/51 50/50/50 49/49/49
s 1
f 51/51/51 52/52/52 50/50/50
s 1
f 53/53/53 52/52/52 51/51/51
s 1
f 53/53/53 54/54/54 52/52/52
s 1
f 55/55/55 54/54/54 53/53/53
s 1
f 55/55/55 56/56/56 54/54/54
s 1
f 57/57/57 56/56/56 55/55/55
s 1
f 57/57/57 58/58/58 56/56/56
s 1
f 59/59/59 58/58/58 57/57/57
s 1
f 59/59/59 60/60/60 58/58/58
s 1
f 61/61/61 60/60/60 59/59/59
s 1
f 61/61/61 62/62/62 60/60/60
s 1
f 63/63/63 62/62/62 61/61/61
s 1
f 63/63/63 64/64/64 62/62/62
s 1
f 65/65/65 64/64/64 63/63/63
s 1
f 65/65/65 66/66/66 64/64/64
s 1
f 67/67/67 66/66/66 65/65/65
s 1
f 67/67/67 68/68/68 66/66/66
s 1
f 69/69/69 68/68/68 67/67/67
s 1
f 69/69/69 70/70/70 68/68/68
s 1
f 71/71/71 70/70/70 69/69/69
s 1
f 71/71/71 72/72/72 70/70/70
s 1
f 73/73/73 72/72/72 71/71/71
s 1
f 73/73/73 74/74/74 72/72/72
s 1
f 75/75/75 74/74/74 73/73/73
s 1
f 75/75/75 76/76/76 74/74/74
s 1
f 77/77/77 76/76/76 75/75/75
s 1
f 77/77/77 78/78/78 76/76/76
s 1
f 79/79/79 78/78/78 77/77/77
s 1
f 79/79/79 80/80/80 78/78/78
s 1
f 81/81/81 80/80/80 79/79/79
s 1
f 81/81/81 82/82/82 80/80/80
s 1
f 83/83/83 82/82/82 81/81/81
s 1
f 83/83/83 84/84/84 82/82/82
s 1
f 85/85/85 84/84/84 83/83/83
s 1
f 85/85/85 86/86/86 84/84/84
s 1
f 87/87/87 86/86/86 85/85/85
s 1
f 87/87/87 88/88/88 86/86/86
s 1
f 89/89/89 88/88/88 87/87/87
s 1
f 89/89/89 90/90/90 88/88/88
s 1
f 91/91/91 90/90/90 89/89/89
s 1
f 91/91/91 92/92/92 90/90/90
s 1
f 93/93/93 92/92/92 91/91/91
s 1
f 93/93/93 94/94/94 92/92/92
s 1
f 95/95/95 94/94/94 93/93/93
s 1
f 95/95/95 96/96/96 94/94/94
s 1
f 97/97/97 96/96/96 95/95/95
s 1
f 97/97/97 98/98/98 96/96/96
s 1
f 99/99/99 98/98/98 97/97/97
s 1
f 99/99/99 100/100/100 98/98/98
s 1
f 101/101/101 100/100/100 99/99/99
s 1
f 101/101/101 102/102/102 100/100/100
s 1
f 103/103/103 102/102/102 101/101/101
s 1
f 103/103/103 104/104/104 102/102/102
s 1
f 105/105/105 104/104/104 103/103/103
s 1
f 105/105/105 106/106/106 104/104/104
s 1
f 107/107/107 106/106/106 105/105/105
s 1
f 107/107/107 108/108/108 106/106/106
s 1
f 109/109/109 108/108/108 107/107/107
s 1
f 109/109/109 110/110/110 108/108/108
s 1
f 111/111/111 110/110/110 109/109/109
s 1
f 111/111/111 112/112/112 110/110/110
s 1
s 1

