
# position 0 0 0
g road_0001-road material
v 2.224104 0 9.36252
v -2.876226 0 11.13062
v -2.768939 0 9.098866
v 2.116818 0 11.39428
v -2.982621 0 13.14551
v 2.010423 0 13.40917
v -3.100007 0 15.36853
v 1.893037 0 15.63219
v -3.215065 0 17.54749
v 1.777978 0 17.81115
v -3.323982 0 19.61013
v 1.669062 0 19.87379
v -3.389636 0 20.85347
v 1.603407 0 21.11713

vn 0 1 0
vn 0 1 0
vn 0 1 0
vn 0 1 0
vn 0 1 0
vn 0 1 0
vn 0 1 0
vn 0 1 0
vn 0 1 0
vn 0 1 0
vn 0 0.9999999 0
vn 0 0.9999999 0
vn 0 1 0
vn 0 1 0

vt 0 0 0.0
vt 1 0.3456958 0.0
vt 1 0 0.0
vt 0 0.3456958 0.0
vt 1 0.688521 0.0
vt 0 0.688521 0.0
vt 1 1.066759 0.0
vt 0 1.066759 0.0
vt 1 1.4375 0.0
vt 0 1.4375 0.0
vt 1 1.78845 0.0
vt 0 1.78845 0.0
vt 1 2 0.0
vt 0 2 0.0


usemtl material
usemap material
f 2/2/2 1/1/1 3/3/3
s 1
f 2/2/2 4/4/4 1/1/1
s 1
f 5/5/5 4/4/4 2/2/2
s 1
f 5/5/5 6/6/6 4/4/4
s 1
f 7/7/7 6/6/6 5/5/5
s 1
f 7/7/7 8/8/8 6/6/6
s 1
f 9/9/9 8/8/8 7/7/7
s 1
f 9/9/9 10/10/10 8/8/8
s 1
f 11/11/11 10/10/10 9/9/9
s 1
f 11/11/11 12/12/12 10/10/10
s 1
f 13/13/13 12/12/12 11/11/11
s 1
f 13/13/13 14/14/14 12/12/12
s 1
s 1

