
# position 0 0 0
g road_0001-road material
v 25 40.00043 39.99974
v -25 41.03185 41.73239
v -25 39.99968 40.00019
v 25 41.0326 41.73194
v -25 42.09064 43.50927
v 25 42.0914 43.50882
v -25.00001 43.11747 45.23265
v 25.00001 43.11823 45.2322
v -25 44.25452 47.14116
v 25 44.25528 47.14071
v -25 45.30386 48.9026
v 25 45.30461 48.90215
v -25 46.37184 50.69556
v 25 46.37259 50.69511
v -25 47.4278 52.46859
v 25 47.42855 52.46814
v -25 48.58054 54.40452
v 25 48.5813 54.40407
v -25 49.63173 56.17044
v 25 49.63248 56.16999
v -25 50.73314 58.02179
v 25 50.73389 58.02134
v -25 51.90617 60.00021
v 25 51.90694 59.99979
v -25 52.85405 61.85416
v 25 52.85483 61.85375
v -25 53.82853 63.70811
v 25 53.8293 63.7077
v -25 54.80672 65.56206
v 25 54.8075 65.56165
v -25 55.76576 67.416
v 25 55.76654 67.4156
v -25 56.6828 69.26994
v 25 56.6836 69.26956
v -25 57.53498 71.12389
v 25 57.53579 71.12354
v -25 58.29943 72.97781
v 25 58.30025 72.97751
v -25 59.01171 75.01714
v 25 59.01255 75.01688
v -25 59.55974 77.05643
v 25 59.5606 77.05627
v -25 59.99956 80.00005
v 25 60.00044 79.99995
v -25 60.05314 82.12693
v 25 60.05402 82.12695
v -25 59.92494 84.25383
v 25 59.92581 84.25392
v -25 59.62922 86.38074
v 25 59.63008 86.38089
v -25 59.18026 88.50765
v 25 59.18111 88.50785
v -25 58.65114 90.44121
v 25 58.65198 90.44147
v -25 58.01788 92.37477
v 25 58.01871 92.37506
v -25 57.29121 94.30833
v 25 57.29202 94.30865
v -25 56.48184 96.24187
v 25 56.48264 96.24223
v -25 55.60049 98.17545
v 25 55.60129 98.17583
v -25 54.71258 99.9998
v 25 54.71336 100.0002
v -25 53.70316 101.8435
v 25 53.70391 101.8439
v -25 52.59922 103.6207
v 25 52.59996 103.6211
v -25 51.35698 105.4618
v 25 51.3577 105.4623
v -25 50.15199 107.1475
v 25 50.1527 107.148
v -25 48.89322 108.8368
v 25 48.89392 108.8373
v -25 47.60827 110.5067
v 25 47.60897 110.5072
v -25 46.32473 112.1344
v 25 46.32542 112.1349
v -25 45.07019 113.697
v 25 45.07087 113.6975
v -25 43.74384 115.3291
v 25 43.74452 115.3296
v -25 42.41071 116.9616
v 25 42.41139 116.9621
v -25 41.07212 118.6156
v 25 41.0728 118.6161
v -25 39.97056 119.9767
v 25 39.97124 119.9772

vn -1.758538E-05 0.8590539 -0.5118851
vn -1.758538E-05 0.8590538 -0.5118853
vn -1.758538E-05 0.8590539 -0.5118851
vn -1.758538E-05 0.8590537 -0.5118855
vn -1.758538E-05 0.8590593 -0.5118759
vn -1.758538E-05 0.8590652 -0.5118662
vn -1.758538E-05 0.8590773 -0.5118458
vn -1.758538E-05 0.859083 -0.5118363
vn -1.758538E-05 0.859095 -0.5118161
vn -1.758538E-05 0.8591022 -0.5118042
vn -1.758538E-05 0.8591186 -0.5117764
vn -1.758538E-05 0.8591276 -0.5117615
vn -1.758538E-05 0.8591471 -0.5117288
vn -1.758538E-05 0.8591578 -0.5117108
vn -1.758538E-05 0.8591846 -0.5116658
vn -1.758538E-05 0.8591995 -0.5116406
vn -1.758538E-05 0.8592355 -0.5115801
vn -1.758538E-05 0.8592588 -0.5115411
vn -1.758538E-05 0.8593274 -0.5114258
vn -1.758538E-05 0.85937 -0.5113544
vn -1.758537E-05 0.8596761 -0.5108395
vn -1.759524E-05 0.8599293 -0.5104132
vn -1.761097E-05 0.8699478 -0.4931438
vn -1.759724E-05 0.8800228 -0.4749314
vn -1.75637E-05 0.8886458 -0.4585942
vn -1.756334E-05 0.8869113 -0.4619396
vn -1.758681E-05 0.8849276 -0.4657286
vn -1.761049E-05 0.884684 -0.4661913
vn -1.761037E-05 0.8856955 -0.4642665
vn -1.760855E-05 0.8869477 -0.4618697
vn -1.760733E-05 0.8909264 -0.4541476
vn -1.760634E-05 0.8936405 -0.4487834
vn -1.760736E-05 0.9004723 -0.4349134
vn -1.756877E-05 0.9045635 -0.4263388
vn -1.753057E-05 0.9140018 -0.4057103
vn -1.751576E-05 0.9192984 -0.3935612
vn -1.754677E-05 0.9316673 -0.3633126
vn -1.756874E-05 0.9381728 -0.3461673
vn -1.75715E-05 0.9517513 -0.3068703
vn -1.755585E-05 0.9589847 -0.2834578
vn -1.757124E-05 0.9769063 -0.213668
vn -1.759264E-05 0.9841636 -0.1772628
vn -1.761346E-05 0.993288 -0.1156668
vn -1.762005E-05 0.9971247 -0.07577849
vn -1.756646E-05 0.9999945 0.003298279
vn -1.752825E-05 0.9994951 0.03177136
vn -1.750824E-05 0.9962772 0.08620825
vn -1.749632E-05 0.9936998 0.112074
vn -1.750317E-05 0.986966 0.1609287
vn -1.752291E-05 0.9829488 0.1838791
vn -1.753065E-05 0.9744197 0.2247362
vn -1.75504E-05 0.969811 0.2438578
vn -1.755666E-05 0.9600165 0.2799433
vn -1.758322E-05 0.9552775 0.2957109
vn -1.759873E-05 0.9457265 0.3249636
vn -1.758919E-05 0.940972 0.3384844
vn -1.756314E-05 0.9316297 0.363409
vn -1.752337E-05 0.9270843 0.3748528
vn -1.750669E-05 0.9183362 0.3958014
vn -1.75299E-05 0.9141639 0.4053449
vn -1.756786E-05 0.9065143 0.422175
vn -1.756152E-05 0.9029268 0.4297943
vn -1.751618E-05 0.891875 0.4522819
vn -1.7481E-05 0.8845288 0.4664855
vn -1.7494E-05 0.8682295 0.4961629
vn -1.752817E-05 0.8590015 0.5119731
vn -1.754565E-05 0.8424852 0.5387196
vn -1.75948E-05 0.8356506 0.5492613
vn -1.762043E-05 0.8241149 0.5664228
vn -1.762761E-05 0.8189804 0.5738215
vn -1.760275E-05 0.8096315 0.5869386
vn -1.759947E-05 0.8057413 0.5922675
vn -1.761938E-05 0.7987711 0.601635
vn -1.759927E-05 0.7956613 0.6057419
vn -1.755878E-05 0.7901351 0.6129327
vn -1.754075E-05 0.787701 0.6160577
vn -1.756324E-05 0.7834605 0.6214416
vn -1.754748E-05 0.7816458 0.6237226
vn -1.750681E-05 0.7785028 0.6276412
vn -1.746782E-05 0.7772606 0.6291788
vn -1.746774E-05 0.7755533 0.6312822
vn -1.746769E-05 0.7750517 0.6318979
vn -1.746773E-05 0.7754827 0.6313688
vn -1.746779E-05 0.7764076 0.6302311
vn -1.746781E-05 0.7773249 0.6290994
vn -1.746781E-05 0.7773249 0.6290995
vn -1.746781E-05 0.7773247 0.6290995
vn -1.746781E-05 0.7773247 0.6290995

vt 0 0 0.0
vt 1 0.3997253 0.0
vt 1 0 0.0
vt 0 0.3997253 0.0
vt 1 0.8097635 0.0
vt 0 0.8097635 0.0
vt 1 1.207445 0.0
vt 0 1.207445 0.0
vt 1 1.647838 0.0
vt 0 1.647838 0.0
vt 1 2.054287 0.0
vt 0 2.054287 0.0
vt 1 2.467995 0.0
vt 0 2.467995 0.0
vt 1 2.877088 0.0
vt 0 2.877088 0.0
vt 1 3.323744 0.0
vt 0 3.323744 0.0
vt 1 3.731142 0.0
vt 0 3.731142 0.0
vt 1 4.158186 0.0
vt 0 4.158186 0.0
vt 1 4.61414 0.0
vt 0 4.61414 0.0
vt 1 5.026914 0.0
vt 0 5.026914 0.0
vt 1 5.442111 0.0
vt 0 5.442111 0.0
vt 1 5.857653 0.0
vt 0 5.857653 0.0
vt 1 6.271437 0.0
vt 0 6.271437 0.0
vt 1 6.681462 0.0
vt 0 6.681462 0.0
vt 1 7.085952 0.0
vt 0 7.085952 0.0
vt 1 7.483492 0.0
vt 0 7.483492 0.0
vt 1 7.911716 0.0
vt 0 7.911716 0.0
vt 1 8.330333 0.0
vt 0 8.330333 0.0
vt 1 8.920351 0.0
vt 0 8.920351 0.0
vt 1 9.342123 0.0
vt 0 9.342123 0.0
vt 1 9.764526 0.0
vt 0 9.764526 0.0
vt 1 10.19022 0.0
vt 0 10.19022 0.0
vt 1 10.62115 0.0
vt 0 10.62115 0.0
vt 1 11.01855 0.0
vt 0 11.01855 0.0
vt 1 11.42189 0.0
vt 0 11.42189 0.0
vt 1 11.83137 0.0
vt 0 11.83137 0.0
vt 1 12.2469 0.0
vt 0 12.2469 0.0
vt 1 12.66815 0.0
vt 0 12.66815 0.0
vt 1 13.07037 0.0
vt 0 13.07037 0.0
vt 1 13.48705 0.0
vt 0 13.48705 0.0
vt 1 13.90179 0.0
vt 0 13.90179 0.0
vt 1 14.34208 0.0
vt 0 14.34208 0.0
vt 1 14.75286 0.0
vt 0 14.75286 0.0
vt 1 15.17048 0.0
vt 0 15.17048 0.0
vt 1 15.58818 0.0
vt 0 15.58818 0.0
vt 1 15.9991 0.0
vt 0 15.9991 0.0
vt 1 16.39635 0.0
vt 0 16.39635 0.0
vt 1 16.81326 0.0
vt 0 16.81326 0.0
vt 1 17.23108 0.0
vt 0 17.23108 0.0
vt 1 17.65288 0.0
vt 0 17.65288 0.0
vt 1 18 0.0
vt 0 18 0.0


usemtl material
usemap material
f 2/2/2 1/1/1 3/3/3
s 1
f 2/2/2 4/4/4 1/1/1
s 1
f 5/5/5 4/4/4 2/2/2
s 1
f 5/5/5 6/6/6 4/4/4
s 1
f 7/7/7 6/6/6 5/5/5
s 1
f 7/7/7 8/8/8 6/6/6
s 1
f 9/9/9 8/8/8 7/7/7
s 1
f 9/9/9 10/10/10 8/8/8
s 1
f 11/11/11 10/10/10 9/9/9
s 1
f 11/11/11 12/12/12 10/10/10
s 1
f 13/13/13 12/12/12 11/11/11
s 1
f 13/13/13 14/14/14 12/12/12
s 1
f 15/15/15 14/14/14 13/13/13
s 1
f 15/15/15 16/16/16 14/14/14
s 1
f 17/17/17 16/16/16 15/15/15
s 1
f 17/17/17 18/18/18 16/16/16
s 1
f 19/19/19 18/18/18 17/17/17
s 1
f 19/19/19 20/20/20 18/18/18
s 1
f 21/21/21 20/20/20 19/19/19
s 1
f 21/21/21 22/22/22 20/20/20
s 1
f 23/23/23 22/22/22 21/21/21
s 1
f 23/23/23 24/24/24 22/22/22
s 1
f 25/25/25 24/24/24 23/23/23
s 1
f 25/25/25 26/26/26 24/24/24
s 1
f 27/27/27 26/26/26 25/25/25
s 1
f 27/27/27 28/28/28 26/26/26
s 1
f 29/29/29 28/28/28 27/27/27
s 1
f 29/29/29 30/30/30 28/28/28
s 1
f 31/31/31 30/30/30 29/29/29
s 1
f 31/31/31 32/32/32 30/30/30
s 1
f 33/33/33 32/32/32 31/31/31
s 1
f 33/33/33 34/34/34 32/32/32
s 1
f 35/35/35 34/34/34 33/33/33
s 1
f 35/35/35 36/36/36 34/34/34
s 1
f 37/37/37 36/36/36 35/35/35
s 1
f 37/37/37 38/38/38 36/36/36
s 1
f 39/39/39 38/38/38 37/37/37
s 1
f 39/39/39 40/40/40 38/38/38
s 1
f 41/41/41 40/40/40 39/39/39
s 1
f 41/41/41 42/42/42 40/40/40
s 1
f 43/43/43 42/42/42 41/41/41
s 1
f 43/43/43 44/44/44 42/42/42
s 1
f 45/45/45 44/44/44 43/43/43
s 1
f 45/45/45 46/46/46 44/44/44
s 1
f 47/47/47 46/46/46 45/45/45
s 1
f 47/47/47 48/48/48 46/46/46
s 1
f 49/49/49 48/48/48 47/47/47
s 1
f 49/49/49 50/50/50 48/48/48
s 1
f 51/51/51 50/50/50 49/49/49
s 1
f 51/51/51 52/52/52 50/50/50
s 1
f 53/53/53 52/52/52 51/51/51
s 1
f 53/53/53 54/54/54 52/52/52
s 1
f 55/55/55 54/54/54 53/53/53
s 1
f 55/55/55 56/56/56 54/54/54
s 1
f 57/57/57 56/56/56 55/55/55
s 1
f 57/57/57 58/58/58 56/56/56
s 1
f 59/59/59 58/58/58 57/57/57
s 1
f 59/59/59 60/60/60 58/58/58
s 1
f 61/61/61 60/60/60 59/59/59
s 1
f 61/61/61 62/62/62 60/60/60
s 1
f 63/63/63 62/62/62 61/61/61
s 1
f 63/63/63 64/64/64 62/62/62
s 1
f 65/65/65 64/64/64 63/63/63
s 1
f 65/65/65 66/66/66 64/64/64
s 1
f 67/67/67 66/66/66 65/65/65
s 1
f 67/67/67 68/68/68 66/66/66
s 1
f 69/69/69 68/68/68 67/67/67
s 1
f 69/69/69 70/70/70 68/68/68
s 1
f 71/71/71 70/70/70 69/69/69
s 1
f 71/71/71 72/72/72 70/70/70
s 1
f 73/73/73 72/72/72 71/71/71
s 1
f 73/73/73 74/74/74 72/72/72
s 1
f 75/75/75 74/74/74 73/73/73
s 1
f 75/75/75 76/76/76 74/74/74
s 1
f 77/77/77 76/76/76 75/75/75
s 1
f 77/77/77 78/78/78 76/76/76
s 1
f 79/79/79 78/78/78 77/77/77
s 1
f 79/79/79 80/80/80 78/78/78
s 1
f 81/81/81 80/80/80 79/79/79
s 1
f 81/81/81 82/82/82 80/80/80
s 1
f 83/83/83 82/82/82 81/81/81
s 1
f 83/83/83 84/84/84 82/82/82
s 1
f 85/85/85 84/84/84 83/83/83
s 1
f 85/85/85 86/86/86 84/84/84
s 1
f 87/87/87 86/86/86 85/85/85
s 1
f 87/87/87 88/88/88 86/86/86
s 1
s 1

